<?xml version="1.0" encoding="UTF-8" standalone="no"?>
<!DOCTYPE svg PUBLIC "-//W3C//DTD SVG 1.1//EN" "http://www.w3.org/Graphics/SVG/1.1/DTD/svg11.dtd">
<svg width="100%" height="100%" viewBox="0 0 64 64" version="1.1" xmlns="http://www.w3.org/2000/svg" xmlns:xlink="http://www.w3.org/1999/xlink" xml:space="preserve" xmlns:serif="http://www.serif.com/" style="fill-rule:evenodd;clip-rule:evenodd;stroke-linejoin:round;stroke-miterlimit:2;">
    <g transform="matrix(0.306097,0,0,0.306097,2.003516,-1.63352)">
        <path d="M65.988,46.868C70.331,46.315 78.022,46.958 82.365,47.705C99.547,50.591 114.875,60.25 124.892,74.505C123.92,74.984 122.965,75.499 122.031,76.049C116.664,79.192 110.804,81.904 105.491,85.094C104.926,84.464 104.296,83.674 103.732,83.018C76.157,50.886 26.52,70.654 21.688,110.438C20.385,121.168 24.941,134.672 32.702,142.186C55.95,164.696 87.505,142.48 105.402,124.579C108.886,121.272 113.075,117.051 116.08,113.349C116.512,114.117 117.039,114.869 117.51,115.619C121.049,121.272 124.592,126.898 128.277,132.454C110.394,152.626 86.713,170.624 58.844,172.902C25.919,175.593 1.531,150.054 0.068,118.022C-1.636,80.728 28.954,48.795 65.988,46.868" style="fill:white;fill-rule:nonzero;"/>
        <path d="M195.953,43.96L195.993,44.101C195.576,45.152 174.17,63.221 171.639,65.416L151.525,82.948C147.86,86.1 144.039,89.199 140.569,92.537C139.591,93.478 138.317,94.367 137.449,95.395L137.553,95.498C138.283,95.079 139.497,94.077 140.319,93.515C143.652,91.261 146.94,88.94 150.181,86.555C159.941,79.457 169.614,72.242 179.2,64.911L186.723,59.132C188.091,58.066 190.007,56.412 191.475,55.594L138.508,108.872C139.15,109.819 140.146,110.992 140.854,111.952C142.852,114.717 144.889,117.454 146.963,120.162L161.693,139.681L179.148,162.879L185.061,170.715C186.396,172.483 187.588,173.925 188.776,175.797C185.479,174.048 181.969,171.963 178.696,170.108C170.819,165.696 162.985,161.207 155.196,156.641C152.974,155.36 150.741,154.1 148.497,152.859C147.792,152.471 144.317,150.62 144.116,150.344C141.421,146.652 138.198,141.36 135.76,137.594L116.64,107.752L110.899,98.768C109.663,96.855 108.239,94.802 107.125,92.844C107.981,92.257 109.69,91.397 110.655,90.876L116.721,87.575L136.566,76.597L178.269,53.702C184.04,50.545 190.149,46.975 195.953,43.96M54.13,84.019C57.857,83.748 65.585,88.75 68.973,90.676C74.573,93.845 80.152,97.049 85.711,100.288C88.674,101.992 94.821,105.201 97.371,107.008C97.862,107.349 98.273,107.794 98.574,108.31C101.069,112.583 94.858,115.12 91.955,116.751L81.999,122.29C76.959,125.056 71.903,127.795 66.833,130.505C64.166,131.922 61.498,133.419 58.74,134.629C50.655,138.168 50.27,132.756 50.307,126.293C50.375,114.326 50.187,102.368 50.413,90.408C50.47,87.426 50.959,85.004 54.13,84.018" style="fill:white;fill-rule:nonzero;"/>
        <path d="M136.29,93.901C142.824,97.766 149.712,101.372 156.309,105.268C165.267,110.594 173.945,116.377 182.309,122.595C182.879,123.02 186.235,125.437 186.379,125.855C184.725,125.05 182.209,123.455 180.553,122.477L168.781,115.431C160.523,110.447 152.155,105.451 144.246,99.947C141.972,98.365 138.036,95.905 136.021,94.225L136.29,93.901ZM132.628,108.632C133.791,109.162 135.192,110.097 136.29,110.8L136.02,111.124C134.771,110.34 133.7,109.65 132.628,108.632" style="fill:white;fill-rule:nonzero;"/>
    </g>
</svg>
